<svg id="Layer_1" data-name="Layer 1" xmlns="http://www.w3.org/2000/svg" viewBox="0 0 434 127"><path d="M92,32.94V107h-71v0a2.36,2.36,0,0,0,1.54-1.18c.16-.25.31-.51.45-.77a23.76,23.76,0,0,0,1-2.44l3.77-10.17q1.82-4.89,3.66-9.76c1.29-3.39,2.59-6.79,3.91-10.17S38,66,39.27,62.76c.61-1.53,1.22-3.06,1.93-4.54a49.5,49.5,0,0,1,6.12-9.84,14.89,14.89,0,0,1,2.41-2.48,12.66,12.66,0,0,1,7-2.73h2l.4,0c.44.08.89.13,1.33.22a13.7,13.7,0,0,1,4.81,2A14.53,14.53,0,0,1,69,49.16a19.18,19.18,0,0,1,2.95,6,17.64,17.64,0,0,1,.53,2.56c.07.56.14,1.11.16,1.66,0,.74,0,1.47,0,2.2a17.29,17.29,0,0,1-.24,2,19.37,19.37,0,0,1-17,15.81l-.32,0-.57,0-.59,0h-.68a2.85,2.85,0,0,0-.29,0H49.59l-.59,0H47.18a.43.43,0,0,0-.14,0h-3a1.52,1.52,0,0,0-.21,0h-.53l-.23,0h0l-.4,0c-.28,0-.56.08-.83.14a3.43,3.43,0,0,0-2.06,1.31,8.64,8.64,0,0,0-.59,1,35.36,35.36,0,0,0-1.59,4.07.43.43,0,0,0,.13,0c.78,0,1.55,0,2.32,0H42.1a1.43,1.43,0,0,0,.22,0H47.1a2.07,2.07,0,0,0,.22,0H49a.26.26,0,0,0,.1,0H50a1.52,1.52,0,0,0,.21,0h1.21s0,0,.08,0h1.43a.19.19,0,0,0,.08,0h1.66a.56.56,0,0,0,.12,0h1.57a.47.47,0,0,0,.17,0H58a.12.12,0,0,0,.08,0h.86l.3,0h.73l.34,0h.09l.76,0h.08l.67,0h0l.59,0h.08l.45,0h.13l.49,0h0l.45,0h0l.41,0h0l1.81-.21c.48-.06,1-.11,1.44-.19s1.22-.23,1.82-.35a24.83,24.83,0,0,0,6.94-2.49,21.48,21.48,0,0,0,4.47-3.21A24.14,24.14,0,0,0,86.32,72a32.2,32.2,0,0,0,2-5.09,30,30,0,0,0,1.11-5.37c.07-.63.14-1.26.16-1.89a26.09,26.09,0,0,0-.07-3.75c-.08-.8-.16-1.59-.29-2.38S89,52,88.78,51.25a38.31,38.31,0,0,0-2.89-7.92c-.71-1.48-1.51-2.91-2.35-4.32a.91.91,0,0,1-.09-.17l.15-.12,1.79-1.24q2.52-1.75,5-3.5l1.52-1Z" fill="#fff"/><path d="M92,32.93l-1.52,1q-2.53,1.74-5,3.5L83.6,38.72l-.15.12a.91.91,0,0,0,.09.17c.84,1.41,1.64,2.84,2.35,4.32a38.31,38.31,0,0,1,2.89,7.92c.18.74.33,1.5.45,2.26s.21,1.58.29,2.38a26.09,26.09,0,0,1,.07,3.75c0,.63-.09,1.26-.16,1.89a30,30,0,0,1-1.11,5.37,32.2,32.2,0,0,1-2,5.09,24.14,24.14,0,0,1-5.21,7.07,21.48,21.48,0,0,1-4.47,3.21,24.83,24.83,0,0,1-6.94,2.49c-.6.12-1.21.25-1.82.35s-1,.13-1.44.19l-1.81.21h0l-.41,0h0l-.45,0h0l-.49,0H63l-.45,0H62.5l-.59,0h0l-.67,0h-.08l-.76,0h-.09c-.23,0-.46,0-.68,0a.78.78,0,0,0-.21,0H58.3l-.13,0H56.85a.21.21,0,0,0-.1,0H55.69L55,86h-1.1l-.68,0h-1.5l-.1,0H50.46a.53.53,0,0,0-.12,0h-1a.56.56,0,0,0-.12,0H48.12l-.49,0H41.57a.53.53,0,0,0-.12,0H39.72l-2.15,0a35.36,35.36,0,0,1,1.59-4.07,8.64,8.64,0,0,1,.59-1,3.43,3.43,0,0,1,2.06-1.31c.27-.06.55-.09.83-.14l.4,0h.27l.4,0h3.83a.29.29,0,0,0,.1,0h2.21a.65.65,0,0,0,.19,0H52.6a.58.58,0,0,0,.19,0H53l.8,0h.17l.59,0,.57,0,.32,0a19.69,19.69,0,0,0,10.19-4.22A19.34,19.34,0,0,0,72.4,63.65a17.29,17.29,0,0,0,.24-2c0-.73.06-1.46,0-2.2,0-.55-.09-1.1-.16-1.66A17.64,17.64,0,0,0,72,55.2a19.18,19.18,0,0,0-2.95-6,14.53,14.53,0,0,0-3.83-3.71,13.7,13.7,0,0,0-4.81-2c-.44-.09-.89-.14-1.33-.22l-.4,0h-.09a1,1,0,0,0-.24,0H57.07l-.36,0a12.66,12.66,0,0,0-7,2.73,14.89,14.89,0,0,0-2.41,2.48,49.5,49.5,0,0,0-6.12,9.84c-.71,1.48-1.32,3-1.93,4.54q-2,4.86-3.86,9.73c-1.32,3.38-2.62,6.78-3.91,10.17s-2.45,6.5-3.66,9.76l-3.77,10.17A23.76,23.76,0,0,1,23,105c-.14.26-.29.52-.45.77A2.36,2.36,0,0,1,21.05,107a4.8,4.8,0,0,1-.93-.08,7.07,7.07,0,0,1-1.52-.6c-.88-.46-1.71-1-2.55-1.5a10,10,0,0,0-1-.55,6.69,6.69,0,0,0-1.93-.44l-1.61-.18a13,13,0,0,1-1.37-.21c-.47-.12-.94-.24-1.4-.4a4.35,4.35,0,0,1-1.27-.69,2,2,0,0,1-.79-1.26,4.59,4.59,0,0,1,0-.74c0-.18.08-.37.14-.54a5.83,5.83,0,0,1,1-1.83c.54-.68,1.1-1.34,1.65-2Q13,91.65,16.15,87a133.9,133.9,0,0,0,8.5-14.37C26,70,27.28,67.3,28.48,64.57c1.63-3.71,3.11-7.47,4.48-11.28q1.44-4,2.7-8.1c.64-2.06,1.28-4.11,2.05-6.12A42.39,42.39,0,0,1,41,32.23a25.61,25.61,0,0,1,4.62-5.7,22,22,0,0,1,6.57-4.1A31.57,31.57,0,0,1,56.8,21a30.55,30.55,0,0,1,3.91-.72l1.47-.18.45,0h.09l.66,0h0l1,0a.19.19,0,0,0,.08,0h.63s.06,0,.1,0h1l.62,0h0l.45,0c.69.1,1.37.17,2,.29A22,22,0,0,1,74.45,22a24.7,24.7,0,0,1,6.7,4.61c.44.41.88.84,1.35,1.23a15.72,15.72,0,0,0,3.23,2c1.42.69,2.86,1.33,4.29,2,.6.28,1.19.59,1.79.88C91.87,32.82,92,32.83,92,32.93Z" fill="#41bfad"/><path d="M62.18,20.11l-1.47.18A30.55,30.55,0,0,0,56.8,21a31.57,31.57,0,0,0-4.65,1.42,22,22,0,0,0-6.57,4.1A25.61,25.61,0,0,0,41,32.23a42.39,42.39,0,0,0-3.25,6.84c-.77,2-1.41,4.06-2.05,6.12q-1.26,4.08-2.7,8.1c-1.37,3.81-2.85,7.57-4.48,11.28C27.28,67.3,26,70,24.65,72.65A133.9,133.9,0,0,1,16.15,87Q13,91.64,9.48,96c-.55.67-1.11,1.33-1.65,2a5.83,5.83,0,0,0-1,1.83,4.72,4.72,0,0,0-.13.54H6.58V20H63.39a.09.09,0,0,1,0,.05h0l-.66,0h-.09Z" fill="#fff"/><path d="M66.81,20.07h0l-.62,0h0V20H92v13H92c0-.1-.09-.11-.15-.14-.6-.29-1.19-.6-1.79-.88-1.43-.68-2.87-1.32-4.29-2a15.72,15.72,0,0,1-3.23-2c-.47-.39-.91-.82-1.35-1.23A24.7,24.7,0,0,0,74.45,22a22,22,0,0,0-5.14-1.62c-.68-.12-1.36-.19-2-.29Z" fill="#fff"/><path d="M6.66,101.07a2,2,0,0,0,.79,1.26,4.35,4.35,0,0,0,1.27.69c.46.16.93.28,1.4.4a13,13,0,0,0,1.37.21l1.61.18a6.69,6.69,0,0,1,1.93.44,10,10,0,0,1,1,.55c.84.52,1.67,1,2.55,1.5a7.07,7.07,0,0,0,1.52.6,4.8,4.8,0,0,0,.93.08v0H6.58v-6Z" fill="#feffff"/><path d="M6.66,101.07l-.08,0v-.71h.08A3.66,3.66,0,0,0,6.66,101.07Z" fill="#7fd4c8"/><path d="M63.38,20a.09.09,0,0,0,0-.05h1.06a.19.19,0,0,1-.08,0Z" fill="#a7e1d9"/><path d="M66.15,20V20h-1s-.07,0-.1,0Z" fill="#9adcd2"/><path d="M42.1,86.23h5.22a2.07,2.07,0,0,1-.22,0H42.32A1.43,1.43,0,0,1,42.1,86.23Z" fill="#b6f7f4"/><path d="M52.79,79.64a.58.58,0,0,1-.19,0H50a.65.65,0,0,1-.19,0h2.94Z" fill="#7bc3b2"/><path d="M46.43,79.59H43.84a1.52,1.52,0,0,1,.21,0h2.37Z" fill="#acd3c6"/><path d="M37.57,86.17l2.15,0H40v0c-.77,0-1.54,0-2.32,0A.43.43,0,0,1,37.57,86.17Z" fill="#bbf8f6"/><path d="M40,86.22v0h1.44a.53.53,0,0,1,.12,0Z" fill="#6ddbd1"/><path d="M57.07,43.14h1.27a1,1,0,0,1,.24,0H57.06Z" fill="#c1faf8"/><path d="M49,79.63H47.64a.29.29,0,0,1-.1,0H49Z" fill="#9fcfc1"/><path d="M51.63,86.09l.1,0H53a.19.19,0,0,1-.08,0Z" fill="#8ae7df"/><path d="M56.75,86a.21.21,0,0,1,.1,0H58A.12.12,0,0,1,58,86Z" fill="#8ae7df"/><path d="M50.34,86.13a.53.53,0,0,1,.12,0h1s0,0-.08,0Z" fill="#8be7e0"/><path d="M58.17,85.91l.13,0h.9l-.3,0Z" fill="#80e3db"/><path d="M48.12,86.19h1a.26.26,0,0,1-.1,0h-.89Z" fill="#9fefea"/><path d="M49.23,86.18a.56.56,0,0,1,.12,0h.86a1.52,1.52,0,0,1-.21,0Z" fill="#8ae7df"/><path d="M53.91,86h.88a.56.56,0,0,1-.12,0H53.9Z" fill="#c1faf8"/><path d="M59.38,85.87a.78.78,0,0,1,.21,0c.22,0,.45,0,.68,0l-.34,0Z" fill="#8ae7df"/><path d="M55.69,86h.84a.47.47,0,0,1-.17,0h-.68Z" fill="#b6f7f4"/><path d="M53.77,79.59l-.8,0a2.85,2.85,0,0,1,.29,0Z" fill="#c2dcd2"/><path d="M46.43,79.59v0H47a.43.43,0,0,1,.14,0Z" fill="#dae7df"/><path d="M60.36,85.82l.76,0Z" fill="#95ebe5"/><path d="M61.2,85.78l.67,0Z" fill="#95ebe5"/><path d="M55.69,86v0H55Z" fill="#6ddbd1"/><path d="M53.91,86v0h-.67Z" fill="#6ddbd1"/><path d="M61.91,85.73l.59,0Z" fill="#8be7e0"/><path d="M49,79.63v0l.59,0Z" fill="#dae7df"/><path d="M54.53,79.55l-.59,0Z" fill="#bbd9ce"/><path d="M48.12,86.19v0h-.48Z" fill="#64d7cb"/><path d="M63.16,85.64l.49,0Z" fill="#80e3db"/><path d="M62.58,85.69l.45,0Z" fill="#80e3db"/><path d="M63.69,85.6l.45,0Z" fill="#8ae7df"/><path d="M64.18,85.56l.41,0Z" fill="#80e3db"/><path d="M43,79.64l-.4,0Z" fill="#b4d6cb"/><path d="M43.71,79.59l-.4,0v0Z" fill="#a7d2c4"/><path d="M58.67,43.17l.4,0Z" fill="#80e3db"/><path d="M57.07,43.14v0h-.35Z" fill="#80e3db"/><path d="M55.42,79.46l-.32,0Z" fill="#bbd9ce"/><path d="M43.31,79.6v0h-.23Z" fill="#b4d6cb"/><path d="M62.72,20.07l.66,0Z" fill="#b4d6cb"/><path d="M66.15,20l.62,0Z" fill="#a7d2c4"/><path d="M66.81,20.07l.45,0Z" fill="#bbd9ce"/><path d="M62.18,20.11l.45,0Z" fill="#b4d6cb"/><text transform="translate(105.15 88.04)" font-size="67.72" fill="#111113" font-family="KeepCalm-Medium, Keep Calm" font-weight="500">ChitChat</text></svg>